<svg width="436" height="120" viewBox="0 0 436 120" fill="none" xmlns="http://www.w3.org/2000/svg">
<g clip-path="url(#clip0)">
<path fill-rule="evenodd" clip-rule="evenodd" d="M158 25.4972H168.945V79.1947C168.945 84.1667 171.134 85.9566 174.616 85.9566C178.099 85.9566 180.288 84.1667 180.288 79.1947V25.4972H190.636V78.4986C190.636 89.6358 185.064 96 174.318 96C163.572 96 158 89.6358 158 78.4986V25.4972ZM224.465 25.4972H234.614L223.172 59.3067L235.41 95.105H223.868L214.913 67.5602L205.859 95.105H195.611L207.849 59.3067L196.407 25.4972H207.749L216.008 51.1527L224.465 25.4972ZM242.873 25.4972H256.703C267.051 25.4972 271.031 31.563 271.031 41.1092V47.374C271.031 55.9258 267.648 60.5994 259.986 61.9916C267.747 63.1849 271.031 68.2563 271.031 75.9132V86.8515C271.031 89.5364 271.329 92.9174 272.921 95.105H270.533C269.14 92.9174 268.842 89.8347 268.842 86.8515V75.9132C268.842 65.6709 262.673 62.986 253.618 62.986H245.062V95.105H242.873V25.4972ZM245.062 60.8978H253.619C263.27 60.8978 268.842 58.4118 268.842 47.6723V41.3081C268.842 32.8557 265.558 27.5854 256.603 27.5854H245.062V60.8978ZM309.238 78.6975H284.463L280.384 95.105H278.394L295.209 25.3978H298.294L315.507 95.105H313.318L309.238 78.6975ZM296.702 27.9832L284.861 76.7087H308.84L296.702 27.9832ZM326.054 95.105V66.9636L309.835 25.4972H312.024L327.248 63.9804L342.471 25.4972H344.759L328.243 66.9636V95.105H326.054ZM353.217 25.4972H355.406V95.105H353.217V25.4972ZM369.435 28.6793V95.105H367.346V25.4972H370.43L394.907 90.6303V25.4972H396.996V95.105H394.31L369.435 28.6793ZM421.374 25C432.02 25 436 32.9552 436 42.6008V47.1751H433.811V42.5014C433.811 34.049 430.627 26.9888 421.473 26.9888C412.22 26.9888 409.036 34.049 409.036 42.5014V78.1008C409.036 86.5532 412.22 93.514 421.473 93.514C430.627 93.514 433.811 86.5532 433.811 78.1008V62.2899H422.966V60.3011H436V78.0014C436 87.6471 432.02 95.6022 421.374 95.6022C410.827 95.6022 406.847 87.6471 406.847 78.0014V42.6008C406.847 32.9552 410.827 25 421.374 25Z" fill="black"/>
<path fill-rule="evenodd" clip-rule="evenodd" d="M51.8004 0.347985C54.4025 0 55.9653 0 55.9653 0V120C54.5856 120 53.1957 119.953 51.8004 119.859C26.8726 118.189 0.260315 101.696 0.260315 74.0541C0.260315 12.4037 38.8674 2.07757 51.8004 0.347985ZM51.8004 4.71117C50.735 4.86615 49.4992 5.08297 48.1306 5.3862C43.2616 6.465 36.7975 8.6186 30.3584 12.8987C17.7358 21.2889 4.42517 38.3633 4.42517 74.0541C4.42517 86.9334 10.9175 97.2168 20.7565 104.443C29.5454 110.897 40.8238 114.741 51.8004 115.526V4.71117Z" fill="#1BB0CC"/>
<path fill-rule="evenodd" clip-rule="evenodd" d="M68.4599 0.347985C65.8578 0 64.295 0 64.295 0V120C65.6747 120 67.0647 119.953 68.4599 119.859C93.3877 118.189 120 101.696 120 74.0541C120 12.4037 81.3929 2.07757 68.4599 0.347985ZM68.4599 4.71117C69.5253 4.86615 70.7612 5.08297 72.1297 5.3862C76.9987 6.465 83.4628 8.6186 89.902 12.8987C102.524 21.2889 115.835 38.3633 115.835 74.0541C115.835 86.9334 109.343 97.2168 99.5038 104.443C90.7149 110.897 79.4366 114.741 68.4599 115.526V4.71117Z" fill="#1BB0CC"/>
</g>
<defs>
<clipPath id="clip0">
<rect width="436" height="120" fill="white"/>
</clipPath>
</defs>
</svg>
